<mxfile host="65bd71144e">
    <diagram id="wIuH8ncp28_GqBe3SETP" name="Page-1">
        <mxGraphModel dx="1786" dy="-1254" grid="1" gridSize="10" guides="1" tooltips="1" connect="1" arrows="1" fold="1" page="1" pageScale="1" pageWidth="850" pageHeight="1100" math="0" shadow="0">
            <root>
                <mxCell id="0"/>
                <mxCell id="1" parent="0"/>
                <mxCell id="27" value="PedidoEstagioService" style="swimlane;fontStyle=0;align=center;verticalAlign=top;childLayout=stackLayout;horizontal=1;startSize=30;horizontalStack=0;resizeParent=1;resizeParentMax=0;resizeLast=0;collapsible=0;marginBottom=0;html=1;" parent="1" vertex="1">
                    <mxGeometry x="579" y="2590" width="225" height="38" as="geometry"/>
                </mxCell>
                <mxCell id="28" style="line;strokeWidth=1;fillColor=none;align=left;verticalAlign=middle;spacingTop=-1;spacingLeft=3;spacingRight=3;rotatable=0;labelPosition=right;points=[];portConstraint=eastwest;" parent="27" vertex="1">
                    <mxGeometry y="30" width="225" height="8" as="geometry"/>
                </mxCell>
                <mxCell id="30" value="DiscenteService" style="swimlane;fontStyle=0;align=center;verticalAlign=top;childLayout=stackLayout;horizontal=1;startSize=30;horizontalStack=0;resizeParent=1;resizeParentMax=0;resizeLast=0;collapsible=0;marginBottom=0;html=1;" parent="1" vertex="1">
                    <mxGeometry x="830" y="2562" width="225" height="38" as="geometry"/>
                </mxCell>
                <mxCell id="31" style="line;strokeWidth=1;fillColor=none;align=left;verticalAlign=middle;spacingTop=-1;spacingLeft=3;spacingRight=3;rotatable=0;labelPosition=right;points=[];portConstraint=eastwest;" parent="30" vertex="1">
                    <mxGeometry y="30" width="225" height="8" as="geometry"/>
                </mxCell>
                <mxCell id="33" value="SupervisorService" style="swimlane;fontStyle=0;align=center;verticalAlign=top;childLayout=stackLayout;horizontal=1;startSize=30;horizontalStack=0;resizeParent=1;resizeParentMax=0;resizeLast=0;collapsible=0;marginBottom=0;html=1;" parent="1" vertex="1">
                    <mxGeometry x="579" y="2522" width="225" height="38" as="geometry"/>
                </mxCell>
                <mxCell id="34" style="line;strokeWidth=1;fillColor=none;align=left;verticalAlign=middle;spacingTop=-1;spacingLeft=3;spacingRight=3;rotatable=0;labelPosition=right;points=[];portConstraint=eastwest;" parent="33" vertex="1">
                    <mxGeometry y="30" width="225" height="8" as="geometry"/>
                </mxCell>
                <mxCell id="36" value="SupervisorMDS" style="swimlane;fontStyle=0;align=center;verticalAlign=top;childLayout=stackLayout;horizontal=1;startSize=30;horizontalStack=0;resizeParent=1;resizeParentMax=0;resizeLast=0;collapsible=0;marginBottom=0;html=1;" parent="1" vertex="1">
                    <mxGeometry x="830" y="2380" width="225" height="142" as="geometry"/>
                </mxCell>
                <mxCell id="37" value="- instance : SupervisorMDS" style="text;html=1;strokeColor=none;fillColor=none;align=left;verticalAlign=middle;spacingLeft=4;spacingRight=4;overflow=hidden;rotatable=0;points=[[0,0.5],[1,0.5]];portConstraint=eastwest;fontStyle=4;" parent="36" vertex="1">
                    <mxGeometry y="30" width="225" height="26" as="geometry"/>
                </mxCell>
                <mxCell id="38" value="- pedidoEstagio : PedidoEstagioDto" style="text;html=1;strokeColor=none;fillColor=none;align=left;verticalAlign=middle;spacingLeft=4;spacingRight=4;overflow=hidden;rotatable=0;points=[[0,0.5],[1,0.5]];portConstraint=eastwest;" parent="36" vertex="1">
                    <mxGeometry y="56" width="225" height="26" as="geometry"/>
                </mxCell>
                <mxCell id="39" style="line;strokeWidth=1;fillColor=none;align=left;verticalAlign=middle;spacingTop=-1;spacingLeft=3;spacingRight=3;rotatable=0;labelPosition=right;points=[];portConstraint=eastwest;" parent="36" vertex="1">
                    <mxGeometry y="82" width="225" height="8" as="geometry"/>
                </mxCell>
                <mxCell id="40" value="+ getInstance(): SupervisorMDS" style="text;html=1;strokeColor=none;fillColor=none;align=left;verticalAlign=middle;spacingLeft=4;spacingRight=4;overflow=hidden;rotatable=0;points=[[0,0.5],[1,0.5]];portConstraint=eastwest;fontStyle=4;" parent="36" vertex="1">
                    <mxGeometry y="90" width="225" height="26" as="geometry"/>
                </mxCell>
                <mxCell id="41" value="+ criarSupervisor(int): void" style="text;html=1;strokeColor=none;fillColor=none;align=left;verticalAlign=middle;spacingLeft=4;spacingRight=4;overflow=hidden;rotatable=0;points=[[0,0.5],[1,0.5]];portConstraint=eastwest;" parent="36" vertex="1">
                    <mxGeometry y="116" width="225" height="26" as="geometry"/>
                </mxCell>
                <mxCell id="42" value="DiscenteMDS" style="swimlane;fontStyle=0;align=center;verticalAlign=top;childLayout=stackLayout;horizontal=1;startSize=30;horizontalStack=0;resizeParent=1;resizeParentMax=0;resizeLast=0;collapsible=0;marginBottom=0;html=1;" parent="1" vertex="1">
                    <mxGeometry x="1151" y="2380" width="225" height="220" as="geometry"/>
                </mxCell>
                <mxCell id="43" value="- instance : DiscenteMDS" style="text;html=1;strokeColor=none;fillColor=none;align=left;verticalAlign=middle;spacingLeft=4;spacingRight=4;overflow=hidden;rotatable=0;points=[[0,0.5],[1,0.5]];portConstraint=eastwest;fontStyle=4;" parent="42" vertex="1">
                    <mxGeometry y="30" width="225" height="26" as="geometry"/>
                </mxCell>
                <mxCell id="44" value="- request : HttpServletRequest" style="text;html=1;strokeColor=none;fillColor=none;align=left;verticalAlign=middle;spacingLeft=4;spacingRight=4;overflow=hidden;rotatable=0;points=[[0,0.5],[1,0.5]];portConstraint=eastwest;" parent="42" vertex="1">
                    <mxGeometry y="56" width="225" height="26" as="geometry"/>
                </mxCell>
                <mxCell id="45" value="- discente : DiscenteDto" style="text;html=1;strokeColor=none;fillColor=none;align=left;verticalAlign=middle;spacingLeft=4;spacingRight=4;overflow=hidden;rotatable=0;points=[[0,0.5],[1,0.5]];portConstraint=eastwest;" parent="42" vertex="1">
                    <mxGeometry y="82" width="225" height="26" as="geometry"/>
                </mxCell>
                <mxCell id="46" style="line;strokeWidth=1;fillColor=none;align=left;verticalAlign=middle;spacingTop=-1;spacingLeft=3;spacingRight=3;rotatable=0;labelPosition=right;points=[];portConstraint=eastwest;" parent="42" vertex="1">
                    <mxGeometry y="108" width="225" height="8" as="geometry"/>
                </mxCell>
                <mxCell id="47" value="+ getInstance(): DiscenteMDS" style="text;html=1;strokeColor=none;fillColor=none;align=left;verticalAlign=middle;spacingLeft=4;spacingRight=4;overflow=hidden;rotatable=0;points=[[0,0.5],[1,0.5]];portConstraint=eastwest;fontStyle=4;" parent="42" vertex="1">
                    <mxGeometry y="116" width="225" height="26" as="geometry"/>
                </mxCell>
                <mxCell id="48" value="+ criarSessao(String, String): void" style="text;html=1;strokeColor=none;fillColor=none;align=left;verticalAlign=middle;spacingLeft=4;spacingRight=4;overflow=hidden;rotatable=0;points=[[0,0.5],[1,0.5]];portConstraint=eastwest;" parent="42" vertex="1">
                    <mxGeometry y="142" width="225" height="26" as="geometry"/>
                </mxCell>
                <mxCell id="49" value="+ ativarSessao(): void" style="text;html=1;strokeColor=none;fillColor=none;align=left;verticalAlign=middle;spacingLeft=4;spacingRight=4;overflow=hidden;rotatable=0;points=[[0,0.5],[1,0.5]];portConstraint=eastwest;" parent="42" vertex="1">
                    <mxGeometry y="168" width="225" height="26" as="geometry"/>
                </mxCell>
                <mxCell id="50" value="+ validarSenha(String): void" style="text;html=1;strokeColor=none;fillColor=none;align=left;verticalAlign=middle;spacingLeft=4;spacingRight=4;overflow=hidden;rotatable=0;points=[[0,0.5],[1,0.5]];portConstraint=eastwest;" parent="42" vertex="1">
                    <mxGeometry y="194" width="225" height="26" as="geometry"/>
                </mxCell>
                <mxCell id="52" value="PedidoEstagioMDS" style="swimlane;fontStyle=0;align=center;verticalAlign=top;childLayout=stackLayout;horizontal=1;startSize=30;horizontalStack=0;resizeParent=1;resizeParentMax=0;resizeLast=0;collapsible=0;marginBottom=0;html=1;" parent="1" vertex="1">
                    <mxGeometry x="70" y="2380" width="450" height="402" as="geometry"/>
                </mxCell>
                <mxCell id="53" value="- instance : PedidoEstagioMDS" style="text;html=1;strokeColor=none;fillColor=none;align=left;verticalAlign=middle;spacingLeft=4;spacingRight=4;overflow=hidden;rotatable=0;points=[[0,0.5],[1,0.5]];portConstraint=eastwest;fontStyle=4;" parent="52" vertex="1">
                    <mxGeometry y="30" width="450" height="26" as="geometry"/>
                </mxCell>
                <mxCell id="54" value="- cargaHorariaCumprida : int" style="text;html=1;strokeColor=none;fillColor=none;align=left;verticalAlign=middle;spacingLeft=4;spacingRight=4;overflow=hidden;rotatable=0;points=[[0,0.5],[1,0.5]];portConstraint=eastwest;" parent="52" vertex="1">
                    <mxGeometry y="56" width="450" height="26" as="geometry"/>
                </mxCell>
                <mxCell id="55" value="- ira : double" style="text;html=1;strokeColor=none;fillColor=none;align=left;verticalAlign=middle;spacingLeft=4;spacingRight=4;overflow=hidden;rotatable=0;points=[[0,0.5],[1,0.5]];portConstraint=eastwest;" parent="52" vertex="1">
                    <mxGeometry y="82" width="450" height="26" as="geometry"/>
                </mxCell>
                <mxCell id="56" value="- pedidoEstagioDto : PedidoEstagioDto" style="text;html=1;strokeColor=none;fillColor=none;align=left;verticalAlign=middle;spacingLeft=4;spacingRight=4;overflow=hidden;rotatable=0;points=[[0,0.5],[1,0.5]];portConstraint=eastwest;" parent="52" vertex="1">
                    <mxGeometry y="108" width="450" height="26" as="geometry"/>
                </mxCell>
                <mxCell id="57" value="- discente : DiscenteDto" style="text;html=1;strokeColor=none;fillColor=none;align=left;verticalAlign=middle;spacingLeft=4;spacingRight=4;overflow=hidden;rotatable=0;points=[[0,0.5],[1,0.5]];portConstraint=eastwest;" parent="52" vertex="1">
                    <mxGeometry y="134" width="450" height="26" as="geometry"/>
                </mxCell>
                <mxCell id="58" style="line;strokeWidth=1;fillColor=none;align=left;verticalAlign=middle;spacingTop=-1;spacingLeft=3;spacingRight=3;rotatable=0;labelPosition=right;points=[];portConstraint=eastwest;" parent="52" vertex="1">
                    <mxGeometry y="160" width="450" height="8" as="geometry"/>
                </mxCell>
                <mxCell id="59" value="+ getInstance(): PedidoEstagioMDS" style="text;html=1;strokeColor=none;fillColor=none;align=left;verticalAlign=middle;spacingLeft=4;spacingRight=4;overflow=hidden;rotatable=0;points=[[0,0.5],[1,0.5]];portConstraint=eastwest;fontStyle=4;" parent="52" vertex="1">
                    <mxGeometry y="168" width="450" height="26" as="geometry"/>
                </mxCell>
                <mxCell id="60" value="+ criarPedEstag(int, double): void" style="text;html=1;strokeColor=none;fillColor=none;align=left;verticalAlign=middle;spacingLeft=4;spacingRight=4;overflow=hidden;rotatable=0;points=[[0,0.5],[1,0.5]];portConstraint=eastwest;" parent="52" vertex="1">
                    <mxGeometry y="194" width="450" height="26" as="geometry"/>
                </mxCell>
                <mxCell id="61" value="+ informarDadosPedEstag(int, String, boolean): void" style="text;html=1;strokeColor=none;fillColor=none;align=left;verticalAlign=middle;spacingLeft=4;spacingRight=4;overflow=hidden;rotatable=0;points=[[0,0.5],[1,0.5]];portConstraint=eastwest;" parent="52" vertex="1">
                    <mxGeometry y="220" width="450" height="26" as="geometry"/>
                </mxCell>
                <mxCell id="63" value="- validarCargaCumprida(int): void" style="text;html=1;strokeColor=none;fillColor=none;align=left;verticalAlign=middle;spacingLeft=4;spacingRight=4;overflow=hidden;rotatable=0;points=[[0,0.5],[1,0.5]];portConstraint=eastwest;" parent="52" vertex="1">
                    <mxGeometry y="246" width="450" height="26" as="geometry"/>
                </mxCell>
                <mxCell id="64" value="- validarIraMinimo(double): void" style="text;html=1;strokeColor=none;fillColor=none;align=left;verticalAlign=middle;spacingLeft=4;spacingRight=4;overflow=hidden;rotatable=0;points=[[0,0.5],[1,0.5]];portConstraint=eastwest;" parent="52" vertex="1">
                    <mxGeometry y="272" width="450" height="26" as="geometry"/>
                </mxCell>
                <mxCell id="65" value="- validarCargaSemanal(int): void" style="text;html=1;strokeColor=none;fillColor=none;align=left;verticalAlign=middle;spacingLeft=4;spacingRight=4;overflow=hidden;rotatable=0;points=[[0,0.5],[1,0.5]];portConstraint=eastwest;" parent="52" vertex="1">
                    <mxGeometry y="298" width="450" height="26" as="geometry"/>
                </mxCell>
                <mxCell id="66" value="+ associarSupervisor(PedidoEstagioDto, SupervisorDto): void" style="text;html=1;strokeColor=none;fillColor=none;align=left;verticalAlign=middle;spacingLeft=4;spacingRight=4;overflow=hidden;rotatable=0;points=[[0,0.5],[1,0.5]];portConstraint=eastwest;" parent="52" vertex="1">
                    <mxGeometry y="324" width="450" height="26" as="geometry"/>
                </mxCell>
                <mxCell id="68" value="+ getPedidoEstagioDto(): PedidoEstagioDto" style="text;html=1;strokeColor=none;fillColor=none;align=left;verticalAlign=middle;spacingLeft=4;spacingRight=4;overflow=hidden;rotatable=0;points=[[0,0.5],[1,0.5]];portConstraint=eastwest;" parent="52" vertex="1">
                    <mxGeometry y="350" width="450" height="26" as="geometry"/>
                </mxCell>
                <mxCell id="67" value="+ pegarPedidoEstagioPeloNumeroPedidoEstagio(int): PedidoEstagioDto" style="text;html=1;strokeColor=none;fillColor=none;align=left;verticalAlign=middle;spacingLeft=4;spacingRight=4;overflow=hidden;rotatable=0;points=[[0,0.5],[1,0.5]];portConstraint=eastwest;fontStyle=4;" parent="52" vertex="1">
                    <mxGeometry y="376" width="450" height="26" as="geometry"/>
                </mxCell>
                <mxCell id="72" value="SupervisorGateway" style="swimlane;fontStyle=0;align=center;verticalAlign=top;childLayout=stackLayout;horizontal=1;startSize=30;horizontalStack=0;resizeParent=1;resizeParentMax=0;resizeLast=0;collapsible=0;marginBottom=0;html=1;" parent="1" vertex="1">
                    <mxGeometry x="579" y="2380" width="225" height="116" as="geometry"/>
                </mxCell>
                <mxCell id="73" value="- instance : SupervisorGateway" style="text;html=1;strokeColor=none;fillColor=none;align=left;verticalAlign=middle;spacingLeft=4;spacingRight=4;overflow=hidden;rotatable=0;points=[[0,0.5],[1,0.5]];portConstraint=eastwest;fontStyle=4;" parent="72" vertex="1">
                    <mxGeometry y="30" width="225" height="26" as="geometry"/>
                </mxCell>
                <mxCell id="74" style="line;strokeWidth=1;fillColor=none;align=left;verticalAlign=middle;spacingTop=-1;spacingLeft=3;spacingRight=3;rotatable=0;labelPosition=right;points=[];portConstraint=eastwest;" parent="72" vertex="1">
                    <mxGeometry y="56" width="225" height="8" as="geometry"/>
                </mxCell>
                <mxCell id="75" value="+ getInstance(): SupervisorGateway" style="text;html=1;strokeColor=none;fillColor=none;align=left;verticalAlign=middle;spacingLeft=4;spacingRight=4;overflow=hidden;rotatable=0;points=[[0,0.5],[1,0.5]];portConstraint=eastwest;fontStyle=4;" parent="72" vertex="1">
                    <mxGeometry y="64" width="225" height="26" as="geometry"/>
                </mxCell>
                <mxCell id="77" value="+ criarSupervisor(String, String, String, String, String): SupervisorDto" style="text;html=1;strokeColor=none;fillColor=none;align=left;verticalAlign=middle;spacingLeft=4;spacingRight=4;overflow=hidden;rotatable=0;points=[[0,0.5],[1,0.5]];portConstraint=eastwest;" parent="72" vertex="1">
                    <mxGeometry y="90" width="225" height="26" as="geometry"/>
                </mxCell>
                <mxCell id="78" value="DiscenteGateway" style="swimlane;fontStyle=0;align=center;verticalAlign=top;childLayout=stackLayout;horizontal=1;startSize=30;horizontalStack=0;resizeParent=1;resizeParentMax=0;resizeLast=0;collapsible=0;marginBottom=0;html=1;" parent="1" vertex="1">
                    <mxGeometry x="70" y="2840" width="290" height="246" as="geometry"/>
                </mxCell>
                <mxCell id="79" value="- instance : DiscenteGateway" style="text;html=1;strokeColor=none;fillColor=none;align=left;verticalAlign=middle;spacingLeft=4;spacingRight=4;overflow=hidden;rotatable=0;points=[[0,0.5],[1,0.5]];portConstraint=eastwest;fontStyle=4;" parent="78" vertex="1">
                    <mxGeometry y="30" width="290" height="26" as="geometry"/>
                </mxCell>
                <mxCell id="80" value="- discenteMap : Map&lt;String,DiscenteDto&gt;&amp;lt;StringDiscenteDto, &amp;gt;" style="text;html=1;strokeColor=none;fillColor=none;align=left;verticalAlign=middle;spacingLeft=4;spacingRight=4;overflow=hidden;rotatable=0;points=[[0,0.5],[1,0.5]];portConstraint=eastwest;" parent="78" vertex="1">
                    <mxGeometry y="56" width="290" height="26" as="geometry"/>
                </mxCell>
                <mxCell id="81" style="line;strokeWidth=1;fillColor=none;align=left;verticalAlign=middle;spacingTop=-1;spacingLeft=3;spacingRight=3;rotatable=0;labelPosition=right;points=[];portConstraint=eastwest;" parent="78" vertex="1">
                    <mxGeometry y="82" width="290" height="8" as="geometry"/>
                </mxCell>
                <mxCell id="82" value="+ getInstance(): DiscenteGateway" style="text;html=1;strokeColor=none;fillColor=none;align=left;verticalAlign=middle;spacingLeft=4;spacingRight=4;overflow=hidden;rotatable=0;points=[[0,0.5],[1,0.5]];portConstraint=eastwest;fontStyle=4;" parent="78" vertex="1">
                    <mxGeometry y="90" width="290" height="26" as="geometry"/>
                </mxCell>
                <mxCell id="83" value="# DiscenteGateway()" style="text;html=1;strokeColor=none;fillColor=none;align=left;verticalAlign=middle;spacingLeft=4;spacingRight=4;overflow=hidden;rotatable=0;points=[[0,0.5],[1,0.5]];portConstraint=eastwest;" parent="78" vertex="1">
                    <mxGeometry y="116" width="290" height="26" as="geometry"/>
                </mxCell>
                <mxCell id="84" value="+ criarDiscente(String, String): void" style="text;html=1;strokeColor=none;fillColor=none;align=left;verticalAlign=middle;spacingLeft=4;spacingRight=4;overflow=hidden;rotatable=0;points=[[0,0.5],[1,0.5]];portConstraint=eastwest;" parent="78" vertex="1">
                    <mxGeometry y="142" width="290" height="26" as="geometry"/>
                </mxCell>
                <mxCell id="85" value="+ pegarDiscentePeloEmail(String): DiscenteDto" style="text;html=1;strokeColor=none;fillColor=none;align=left;verticalAlign=middle;spacingLeft=4;spacingRight=4;overflow=hidden;rotatable=0;points=[[0,0.5],[1,0.5]];portConstraint=eastwest;" parent="78" vertex="1">
                    <mxGeometry y="168" width="290" height="26" as="geometry"/>
                </mxCell>
                <mxCell id="86" value="+ pegarDiscentePeloId(String): DiscenteDto" style="text;html=1;strokeColor=none;fillColor=none;align=left;verticalAlign=middle;spacingLeft=4;spacingRight=4;overflow=hidden;rotatable=0;points=[[0,0.5],[1,0.5]];portConstraint=eastwest;" parent="78" vertex="1">
                    <mxGeometry y="194" width="290" height="26" as="geometry"/>
                </mxCell>
                <mxCell id="87" value="+ salvarDiscente(DiscenteDto): void" style="text;html=1;strokeColor=none;fillColor=none;align=left;verticalAlign=middle;spacingLeft=4;spacingRight=4;overflow=hidden;rotatable=0;points=[[0,0.5],[1,0.5]];portConstraint=eastwest;" parent="78" vertex="1">
                    <mxGeometry y="220" width="290" height="26" as="geometry"/>
                </mxCell>
                <mxCell id="88" value="PedEstagGateway" style="swimlane;fontStyle=0;align=center;verticalAlign=top;childLayout=stackLayout;horizontal=1;startSize=30;horizontalStack=0;resizeParent=1;resizeParentMax=0;resizeLast=0;collapsible=0;marginBottom=0;html=1;" parent="1" vertex="1">
                    <mxGeometry x="579" y="2650" width="449" height="220" as="geometry"/>
                </mxCell>
                <mxCell id="89" value="- instance : PedEstagGateway" style="text;html=1;strokeColor=none;fillColor=none;align=left;verticalAlign=middle;spacingLeft=4;spacingRight=4;overflow=hidden;rotatable=0;points=[[0,0.5],[1,0.5]];portConstraint=eastwest;fontStyle=4;" parent="88" vertex="1">
                    <mxGeometry y="30" width="449" height="26" as="geometry"/>
                </mxCell>
                <mxCell id="90" value="- pedEstagMap : Map&lt;Integer,PedidoEstagioDto&gt;&amp;lt;IntegerPedidoEstagioDto, &amp;gt;" style="text;html=1;strokeColor=none;fillColor=none;align=left;verticalAlign=middle;spacingLeft=4;spacingRight=4;overflow=hidden;rotatable=0;points=[[0,0.5],[1,0.5]];portConstraint=eastwest;" parent="88" vertex="1">
                    <mxGeometry y="56" width="449" height="26" as="geometry"/>
                </mxCell>
                <mxCell id="91" style="line;strokeWidth=1;fillColor=none;align=left;verticalAlign=middle;spacingTop=-1;spacingLeft=3;spacingRight=3;rotatable=0;labelPosition=right;points=[];portConstraint=eastwest;" parent="88" vertex="1">
                    <mxGeometry y="82" width="449" height="8" as="geometry"/>
                </mxCell>
                <mxCell id="92" value="+ getInstance(): PedEstagGateway" style="text;html=1;strokeColor=none;fillColor=none;align=left;verticalAlign=middle;spacingLeft=4;spacingRight=4;overflow=hidden;rotatable=0;points=[[0,0.5],[1,0.5]];portConstraint=eastwest;fontStyle=4;" parent="88" vertex="1">
                    <mxGeometry y="90" width="449" height="26" as="geometry"/>
                </mxCell>
                <mxCell id="93" value="# PedEstagGateway()" style="text;html=1;strokeColor=none;fillColor=none;align=left;verticalAlign=middle;spacingLeft=4;spacingRight=4;overflow=hidden;rotatable=0;points=[[0,0.5],[1,0.5]];portConstraint=eastwest;" parent="88" vertex="1">
                    <mxGeometry y="116" width="449" height="26" as="geometry"/>
                </mxCell>
                <mxCell id="94" value="+ pegarPedidoEstagioPeloNumeroPedidoEstagio(int): PedidoEstagioDto" style="text;html=1;strokeColor=none;fillColor=none;align=left;verticalAlign=middle;spacingLeft=4;spacingRight=4;overflow=hidden;rotatable=0;points=[[0,0.5],[1,0.5]];portConstraint=eastwest;" parent="88" vertex="1">
                    <mxGeometry y="142" width="449" height="26" as="geometry"/>
                </mxCell>
                <mxCell id="95" value="+ salvarPedEstag(PedidoEstagioDto): void" style="text;html=1;strokeColor=none;fillColor=none;align=left;verticalAlign=middle;spacingLeft=4;spacingRight=4;overflow=hidden;rotatable=0;points=[[0,0.5],[1,0.5]];portConstraint=eastwest;" parent="88" vertex="1">
                    <mxGeometry y="168" width="449" height="26" as="geometry"/>
                </mxCell>
                <mxCell id="96" value="+ criarPedEstag(String, String, int, double, int, boolean): PedidoEstagioDto" style="text;html=1;strokeColor=none;fillColor=none;align=left;verticalAlign=middle;spacingLeft=4;spacingRight=4;overflow=hidden;rotatable=0;points=[[0,0.5],[1,0.5]];portConstraint=eastwest;" parent="88" vertex="1">
                    <mxGeometry y="194" width="449" height="26" as="geometry"/>
                </mxCell>
                <mxCell id="104" value="DiscenteDto" style="swimlane;fontStyle=0;align=center;verticalAlign=top;childLayout=stackLayout;horizontal=1;startSize=30;horizontalStack=0;resizeParent=1;resizeParentMax=0;resizeLast=0;collapsible=0;marginBottom=0;html=1;" parent="1" vertex="1">
                    <mxGeometry x="400" y="2900" width="225" height="64" as="geometry"/>
                </mxCell>
                <mxCell id="105" style="line;strokeWidth=1;fillColor=none;align=left;verticalAlign=middle;spacingTop=-1;spacingLeft=3;spacingRight=3;rotatable=0;labelPosition=right;points=[];portConstraint=eastwest;" parent="104" vertex="1">
                    <mxGeometry y="30" width="225" height="8" as="geometry"/>
                </mxCell>
                <mxCell id="106" value="+ DiscenteDto(String, String, String)" style="text;html=1;strokeColor=none;fillColor=none;align=left;verticalAlign=middle;spacingLeft=4;spacingRight=4;overflow=hidden;rotatable=0;points=[[0,0.5],[1,0.5]];portConstraint=eastwest;" parent="104" vertex="1">
                    <mxGeometry y="38" width="225" height="26" as="geometry"/>
                </mxCell>
                <mxCell id="107" value="PedidoEstagioDto" style="swimlane;fontStyle=0;align=center;verticalAlign=top;childLayout=stackLayout;horizontal=1;startSize=30;horizontalStack=0;resizeParent=1;resizeParentMax=0;resizeLast=0;collapsible=0;marginBottom=0;html=1;" parent="1" vertex="1">
                    <mxGeometry x="1055" y="2650" width="489" height="506" as="geometry"/>
                </mxCell>
                <mxCell id="108" value="- numeroPedidoEstagio : int" style="text;html=1;strokeColor=none;fillColor=none;align=left;verticalAlign=middle;spacingLeft=4;spacingRight=4;overflow=hidden;rotatable=0;points=[[0,0.5],[1,0.5]];portConstraint=eastwest;" parent="107" vertex="1">
                    <mxGeometry y="30" width="489" height="26" as="geometry"/>
                </mxCell>
                <mxCell id="109" value="- discenteId : String" style="text;html=1;strokeColor=none;fillColor=none;align=left;verticalAlign=middle;spacingLeft=4;spacingRight=4;overflow=hidden;rotatable=0;points=[[0,0.5],[1,0.5]];portConstraint=eastwest;" parent="107" vertex="1">
                    <mxGeometry y="56" width="489" height="26" as="geometry"/>
                </mxCell>
                <mxCell id="110" value="- nomeEmpresa : String" style="text;html=1;strokeColor=none;fillColor=none;align=left;verticalAlign=middle;spacingLeft=4;spacingRight=4;overflow=hidden;rotatable=0;points=[[0,0.5],[1,0.5]];portConstraint=eastwest;" parent="107" vertex="1">
                    <mxGeometry y="82" width="489" height="26" as="geometry"/>
                </mxCell>
                <mxCell id="111" value="- cargaHorariaCumprida : int" style="text;html=1;strokeColor=none;fillColor=none;align=left;verticalAlign=middle;spacingLeft=4;spacingRight=4;overflow=hidden;rotatable=0;points=[[0,0.5],[1,0.5]];portConstraint=eastwest;" parent="107" vertex="1">
                    <mxGeometry y="108" width="489" height="26" as="geometry"/>
                </mxCell>
                <mxCell id="112" value="- ira : double" style="text;html=1;strokeColor=none;fillColor=none;align=left;verticalAlign=middle;spacingLeft=4;spacingRight=4;overflow=hidden;rotatable=0;points=[[0,0.5],[1,0.5]];portConstraint=eastwest;" parent="107" vertex="1">
                    <mxGeometry y="134" width="489" height="26" as="geometry"/>
                </mxCell>
                <mxCell id="113" value="- cargaHorariaSemanal : int" style="text;html=1;strokeColor=none;fillColor=none;align=left;verticalAlign=middle;spacingLeft=4;spacingRight=4;overflow=hidden;rotatable=0;points=[[0,0.5],[1,0.5]];portConstraint=eastwest;" parent="107" vertex="1">
                    <mxGeometry y="160" width="489" height="26" as="geometry"/>
                </mxCell>
                <mxCell id="114" value="- primeiroEstagio : boolean" style="text;html=1;strokeColor=none;fillColor=none;align=left;verticalAlign=middle;spacingLeft=4;spacingRight=4;overflow=hidden;rotatable=0;points=[[0,0.5],[1,0.5]];portConstraint=eastwest;" parent="107" vertex="1">
                    <mxGeometry y="186" width="489" height="26" as="geometry"/>
                </mxCell>
                <mxCell id="115" value="- supervisorId : String" style="text;html=1;strokeColor=none;fillColor=none;align=left;verticalAlign=middle;spacingLeft=4;spacingRight=4;overflow=hidden;rotatable=0;points=[[0,0.5],[1,0.5]];portConstraint=eastwest;" parent="107" vertex="1">
                    <mxGeometry y="212" width="489" height="26" as="geometry"/>
                </mxCell>
                <mxCell id="116" style="line;strokeWidth=1;fillColor=none;align=left;verticalAlign=middle;spacingTop=-1;spacingLeft=3;spacingRight=3;rotatable=0;labelPosition=right;points=[];portConstraint=eastwest;" parent="107" vertex="1">
                    <mxGeometry y="238" width="489" height="8" as="geometry"/>
                </mxCell>
                <mxCell id="117" value="+ PedidoEstagioDto(Integer, String, String, int, double, int, boolean)" style="text;html=1;strokeColor=none;fillColor=none;align=left;verticalAlign=middle;spacingLeft=4;spacingRight=4;overflow=hidden;rotatable=0;points=[[0,0.5],[1,0.5]];portConstraint=eastwest;" parent="107" vertex="1">
                    <mxGeometry y="246" width="489" height="26" as="geometry"/>
                </mxCell>
                <mxCell id="118" value="+ setSupervisorId(String): void" style="text;html=1;strokeColor=none;fillColor=none;align=left;verticalAlign=middle;spacingLeft=4;spacingRight=4;overflow=hidden;rotatable=0;points=[[0,0.5],[1,0.5]];portConstraint=eastwest;" parent="107" vertex="1">
                    <mxGeometry y="272" width="489" height="26" as="geometry"/>
                </mxCell>
                <mxCell id="119" value="+ getNumeroPedidoEstagio(): int" style="text;html=1;strokeColor=none;fillColor=none;align=left;verticalAlign=middle;spacingLeft=4;spacingRight=4;overflow=hidden;rotatable=0;points=[[0,0.5],[1,0.5]];portConstraint=eastwest;" parent="107" vertex="1">
                    <mxGeometry y="298" width="489" height="26" as="geometry"/>
                </mxCell>
                <mxCell id="120" value="+ getDiscenteId(): String" style="text;html=1;strokeColor=none;fillColor=none;align=left;verticalAlign=middle;spacingLeft=4;spacingRight=4;overflow=hidden;rotatable=0;points=[[0,0.5],[1,0.5]];portConstraint=eastwest;" parent="107" vertex="1">
                    <mxGeometry y="324" width="489" height="26" as="geometry"/>
                </mxCell>
                <mxCell id="121" value="+ getSupervisorId(): String" style="text;html=1;strokeColor=none;fillColor=none;align=left;verticalAlign=middle;spacingLeft=4;spacingRight=4;overflow=hidden;rotatable=0;points=[[0,0.5],[1,0.5]];portConstraint=eastwest;" parent="107" vertex="1">
                    <mxGeometry y="350" width="489" height="26" as="geometry"/>
                </mxCell>
                <mxCell id="122" value="+ getNomeEmpresa(): String" style="text;html=1;strokeColor=none;fillColor=none;align=left;verticalAlign=middle;spacingLeft=4;spacingRight=4;overflow=hidden;rotatable=0;points=[[0,0.5],[1,0.5]];portConstraint=eastwest;" parent="107" vertex="1">
                    <mxGeometry y="376" width="489" height="26" as="geometry"/>
                </mxCell>
                <mxCell id="123" value="+ getCargaHorariaCumprida(): int" style="text;html=1;strokeColor=none;fillColor=none;align=left;verticalAlign=middle;spacingLeft=4;spacingRight=4;overflow=hidden;rotatable=0;points=[[0,0.5],[1,0.5]];portConstraint=eastwest;" parent="107" vertex="1">
                    <mxGeometry y="402" width="489" height="26" as="geometry"/>
                </mxCell>
                <mxCell id="124" value="+ getIra(): double" style="text;html=1;strokeColor=none;fillColor=none;align=left;verticalAlign=middle;spacingLeft=4;spacingRight=4;overflow=hidden;rotatable=0;points=[[0,0.5],[1,0.5]];portConstraint=eastwest;" parent="107" vertex="1">
                    <mxGeometry y="428" width="489" height="26" as="geometry"/>
                </mxCell>
                <mxCell id="125" value="+ getCargaHorariaSemanal(): int" style="text;html=1;strokeColor=none;fillColor=none;align=left;verticalAlign=middle;spacingLeft=4;spacingRight=4;overflow=hidden;rotatable=0;points=[[0,0.5],[1,0.5]];portConstraint=eastwest;" parent="107" vertex="1">
                    <mxGeometry y="454" width="489" height="26" as="geometry"/>
                </mxCell>
                <mxCell id="126" value="+ isPrimeiroEstagio(): boolean" style="text;html=1;strokeColor=none;fillColor=none;align=left;verticalAlign=middle;spacingLeft=4;spacingRight=4;overflow=hidden;rotatable=0;points=[[0,0.5],[1,0.5]];portConstraint=eastwest;" parent="107" vertex="1">
                    <mxGeometry y="480" width="489" height="26" as="geometry"/>
                </mxCell>
                <mxCell id="130" value="UsuarioDto" style="swimlane;fontStyle=0;align=center;verticalAlign=top;childLayout=stackLayout;horizontal=1;startSize=30;horizontalStack=0;resizeParent=1;resizeParentMax=0;resizeLast=0;collapsible=0;marginBottom=0;html=1;" parent="1" vertex="1">
                    <mxGeometry x="800" y="2900" width="225" height="272" as="geometry"/>
                </mxCell>
                <mxCell id="131" value="- id : String" style="text;html=1;strokeColor=none;fillColor=none;align=left;verticalAlign=middle;spacingLeft=4;spacingRight=4;overflow=hidden;rotatable=0;points=[[0,0.5],[1,0.5]];portConstraint=eastwest;" parent="130" vertex="1">
                    <mxGeometry y="30" width="225" height="26" as="geometry"/>
                </mxCell>
                <mxCell id="132" value="- email : String" style="text;html=1;strokeColor=none;fillColor=none;align=left;verticalAlign=middle;spacingLeft=4;spacingRight=4;overflow=hidden;rotatable=0;points=[[0,0.5],[1,0.5]];portConstraint=eastwest;" parent="130" vertex="1">
                    <mxGeometry y="56" width="225" height="26" as="geometry"/>
                </mxCell>
                <mxCell id="133" value="- nome : String" style="text;html=1;strokeColor=none;fillColor=none;align=left;verticalAlign=middle;spacingLeft=4;spacingRight=4;overflow=hidden;rotatable=0;points=[[0,0.5],[1,0.5]];portConstraint=eastwest;" parent="130" vertex="1">
                    <mxGeometry y="82" width="225" height="26" as="geometry"/>
                </mxCell>
                <mxCell id="134" value="- senha : String" style="text;html=1;strokeColor=none;fillColor=none;align=left;verticalAlign=middle;spacingLeft=4;spacingRight=4;overflow=hidden;rotatable=0;points=[[0,0.5],[1,0.5]];portConstraint=eastwest;" parent="130" vertex="1">
                    <mxGeometry y="108" width="225" height="26" as="geometry"/>
                </mxCell>
                <mxCell id="135" style="line;strokeWidth=1;fillColor=none;align=left;verticalAlign=middle;spacingTop=-1;spacingLeft=3;spacingRight=3;rotatable=0;labelPosition=right;points=[];portConstraint=eastwest;" parent="130" vertex="1">
                    <mxGeometry y="134" width="225" height="8" as="geometry"/>
                </mxCell>
                <mxCell id="136" value="+ UsuarioDto(String, String, String)" style="text;html=1;strokeColor=none;fillColor=none;align=left;verticalAlign=middle;spacingLeft=4;spacingRight=4;overflow=hidden;rotatable=0;points=[[0,0.5],[1,0.5]];portConstraint=eastwest;" parent="130" vertex="1">
                    <mxGeometry y="142" width="225" height="26" as="geometry"/>
                </mxCell>
                <mxCell id="137" value="+ getId(): String" style="text;html=1;strokeColor=none;fillColor=none;align=left;verticalAlign=middle;spacingLeft=4;spacingRight=4;overflow=hidden;rotatable=0;points=[[0,0.5],[1,0.5]];portConstraint=eastwest;" parent="130" vertex="1">
                    <mxGeometry y="168" width="225" height="26" as="geometry"/>
                </mxCell>
                <mxCell id="138" value="+ getEmail(): String" style="text;html=1;strokeColor=none;fillColor=none;align=left;verticalAlign=middle;spacingLeft=4;spacingRight=4;overflow=hidden;rotatable=0;points=[[0,0.5],[1,0.5]];portConstraint=eastwest;" parent="130" vertex="1">
                    <mxGeometry y="194" width="225" height="26" as="geometry"/>
                </mxCell>
                <mxCell id="139" value="+ getNome(): String" style="text;html=1;strokeColor=none;fillColor=none;align=left;verticalAlign=middle;spacingLeft=4;spacingRight=4;overflow=hidden;rotatable=0;points=[[0,0.5],[1,0.5]];portConstraint=eastwest;" parent="130" vertex="1">
                    <mxGeometry y="220" width="225" height="26" as="geometry"/>
                </mxCell>
                <mxCell id="140" value="+ getSenha(): String" style="text;html=1;strokeColor=none;fillColor=none;align=left;verticalAlign=middle;spacingLeft=4;spacingRight=4;overflow=hidden;rotatable=0;points=[[0,0.5],[1,0.5]];portConstraint=eastwest;" parent="130" vertex="1">
                    <mxGeometry y="246" width="225" height="26" as="geometry"/>
                </mxCell>
                <mxCell id="147" value="Extends" style="endArrow=block;endSize=16;endFill=0;html=1" parent="1" source="104" target="130" edge="1">
                    <mxGeometry width="160" relative="1" as="geometry"/>
                </mxCell>
                <mxCell id="148" value="Extends" style="endArrow=block;endSize=16;endFill=0;html=1" parent="1" source="127" target="130" edge="1">
                    <mxGeometry width="160" relative="1" as="geometry"/>
                </mxCell>
                <mxCell id="127" value="SupervisorDto" style="swimlane;fontStyle=0;align=center;verticalAlign=top;childLayout=stackLayout;horizontal=1;startSize=30;horizontalStack=0;resizeParent=1;resizeParentMax=0;resizeLast=0;collapsible=0;marginBottom=0;html=1;" parent="1" vertex="1">
                    <mxGeometry x="390" y="3004" width="225" height="64" as="geometry"/>
                </mxCell>
                <mxCell id="128" style="line;strokeWidth=1;fillColor=none;align=left;verticalAlign=middle;spacingTop=-1;spacingLeft=3;spacingRight=3;rotatable=0;labelPosition=right;points=[];portConstraint=eastwest;" parent="127" vertex="1">
                    <mxGeometry y="30" width="225" height="8" as="geometry"/>
                </mxCell>
                <mxCell id="129" value="+ SupervisorDto(String, String, String)" style="text;html=1;strokeColor=none;fillColor=none;align=left;verticalAlign=middle;spacingLeft=4;spacingRight=4;overflow=hidden;rotatable=0;points=[[0,0.5],[1,0.5]];portConstraint=eastwest;" parent="127" vertex="1">
                    <mxGeometry y="38" width="225" height="26" as="geometry"/>
                </mxCell>
            </root>
        </mxGraphModel>
    </diagram>
</mxfile>